<svg width="26" height="30" viewBox="0 0 26 30" fill="none" xmlns="http://www.w3.org/2000/svg">
<g transform="translate(0,30) scale(0.020313,-0.023438)" fill="currentColor" stroke="none">
<path d="M793 1138 c-21 -24 -50 -58 -63 -75 -22 -31 -28 -33 -89 -34 -36 -1
-79 -4 -96 -8 -27 -6 -37 -1 -93 51 -74 69 -102 74 -132 26 -21 -35 -50 -149
-50 -198 0 -17 -20 -67 -44 -113 -24 -45 -49 -107 -56 -139 l-11 -56 -50 -7
c-39 -6 -49 -11 -47 -24 3 -13 13 -15 49 -13 l46 4 12 -48 c11 -43 11 -50 -6
-61 -39 -27 -45 -35 -34 -46 8 -8 20 -6 41 7 31 17 31 17 64 -12 19 -16 39
-31 46 -34 9 -3 9 -20 0 -71 -20 -114 4 -197 65 -223 52 -21 157 -18 187 5 32
26 114 25 147 0 17 -14 41 -19 84 -19 80 0 132 17 165 54 25 28 33 31 92 32
120 2 210 74 210 169 0 27 -8 44 -29 66 -48 48 -93 37 -138 -34 -28 -44 -51
-66 -69 -67 -9 0 -34 97 -34 132 0 3 13 11 30 18 16 7 48 32 70 57 40 43 43
44 86 37 57 -8 60 12 4 33 -28 11 -39 21 -35 31 3 7 5 26 5 42 0 26 3 28 56
35 44 5 55 10 52 23 -3 13 -15 17 -56 17 l-53 0 -19 54 c-11 29 -38 78 -60
108 -26 33 -47 76 -56 111 -18 69 -50 147 -76 185 -30 41 -67 37 -115 -15z
m93 -23 c23 -36 75 -187 69 -203 -3 -8 15 -36 39 -63 38 -42 86 -137 86 -169
0 -4 -13 -11 -30 -15 -32 -7 -45 -19 -35 -34 3 -6 18 -6 36 -1 29 9 30 8 27
-23 -3 -28 -7 -32 -32 -32 -37 0 -46 -22 -12 -31 l26 -6 -19 -27 c-11 -15 -43
-40 -73 -56 -29 -15 -54 -29 -56 -30 -1 -1 4 -28 13 -61 35 -136 -3 -264 -78
-264 -8 0 -14 7 -13 16 2 26 -22 28 -26 2 -2 -15 -11 -24 -25 -26 -17 -3 -20
1 -16 16 8 31 -16 37 -27 7 -13 -33 -44 -30 -48 5 -6 39 -20 47 -38 22 -17
-24 -49 -28 -88 -10 -23 10 -28 8 -47 -15 -24 -32 -45 -35 -54 -7 -8 26 -25
26 -25 1 0 -39 -32 -34 -44 7 -9 27 -26 29 -26 2 0 -26 -12 -25 -36 1 -24 27
-30 126 -11 196 l14 52 -44 28 c-23 15 -43 30 -43 34 0 4 16 17 36 29 27 15
34 24 26 32 -8 8 -22 6 -51 -5 l-39 -16 -11 31 c-6 17 -9 34 -6 37 3 2 28 4
55 2 38 -2 50 1 50 12 0 17 -29 27 -78 27 l-34 0 7 42 c9 55 32 113 64 163 17
27 31 71 42 135 9 52 23 112 32 133 15 35 18 37 39 26 13 -7 46 -36 74 -66
l51 -53 35 14 c21 9 61 13 110 12 75 -3 76 -3 94 28 21 37 103 126 115 126 5
0 16 -11 25 -25z m288 -771 c9 -8 17 -21 17 -27 8 -76 -56 -130 -165 -143 -56
-7 -56 -7 -56 20 0 21 7 29 40 42 37 15 59 36 103 98 21 30 39 33 61 10z"/>
<path d="M886 664 c-29 -29 -11 -84 27 -84 30 0 47 18 47 50 0 47 -42 66 -74
34z"/>
<path d="M502 618 c-20 -20 -14 -65 10 -82 42 -30 85 24 58 73 -12 23 -49 28
-68 9z"/>
<path d="M727 538 c-13 -20 -18 -21 -37 -10 -20 12 -21 11 -18 -10 4 -28 33
-35 58 -13 15 13 23 14 40 5 37 -20 88 16 61 43 -7 7 -12 5 -17 -6 -8 -21 -28
-22 -44 -2 -17 20 -25 19 -43 -7z"/>
</g>
</svg>
